<svg xmlns="http://www.w3.org/2000/svg" height="20" width="20" viewBox="0 0 100 100">
  <path d="m100 100c-.0788644-59.2647367-50.2714038-101.00902058-98.53801845-99.98144054l-1.46198155.0442569v16.87562024c22.8467642.7675814 42.5293949 8.6269128 58.4998247 24.6886733 15.7693479 15.8548913 23.4604084 35.3676837 24.3442587 57.6217172l.0272163.7511729zm-35.0356755 0c1.2744013-36.4110804-31.8141828-66.5076376-63.9896269-64.941512l-.9746976.0571761v16.4599701c18.3229442 1.9606235 31.4808606 9.0936501 39.502426 21.3048035 4.6504757 7.0775287 7.5752956 15.864554 8.7788978 26.3313997l.087043.7881626zm-51.8428762-.0000003c6.9413142-.0063426 12.8048731-5.8658088 12.877673-12.8772036.080713-7.5342784-5.4077681-13.1196268-12.8919165-13.1227964-7.21668788-.0015839-13.2669944 6.0654513-13.10398588 13.1338879.16300852 6.7911498 6.35891488 12.8724454 13.11822938 12.8661121z" fill-rule="evenodd"/>
  </svg>